<svg width="143" height="143" viewBox="0 0 143 143" fill="none" xmlns="http://www.w3.org/2000/svg">
<g clip-path="url(#clip0_658_4849)">
<path d="M96.837 89.031C95.305 89.031 94.0626 90.2731 94.0626 91.8054V110.949C94.0626 118.598 87.8396 124.821 80.1906 124.821H50.236C48.7042 124.821 47.4627 126.062 47.4616 127.593L47.4577 133.109L40.8357 126.488C40.4071 125.504 39.4261 124.821 38.2913 124.821H20.2636C12.6146 124.821 6.39157 118.598 6.39157 110.949V68.223C6.39157 60.574 12.6146 54.351 20.2636 54.351H48.285C49.817 54.351 51.0594 53.1089 51.0594 51.5766C51.0594 50.0443 49.817 48.8022 48.285 48.8022H20.2636C9.55494 48.8022 0.842773 57.5144 0.842773 68.223V110.949C0.842773 121.657 9.55494 130.37 20.2636 130.37H36.8706L48.2653 141.764C48.796 142.295 49.5055 142.577 50.2276 142.577C50.5847 142.577 50.9451 142.508 51.2877 142.366C52.3245 141.937 53.0007 140.926 53.0015 139.804L53.0081 130.37H80.1906C90.8992 130.37 99.6114 121.657 99.6114 110.949V91.8054C99.6114 90.2731 98.369 89.031 96.837 89.031Z" fill="white"/>
<path d="M102.567 0.527588H95.5455C73.3103 0.527588 55.2207 18.6172 55.2207 40.8524C55.2207 63.0875 73.3103 81.1769 95.5452 81.1769H102.567C106.037 81.1769 109.472 80.736 112.802 79.8649L123.174 90.2317C123.705 90.7619 124.414 91.0438 125.136 91.0438C125.494 91.0438 125.854 90.9747 126.198 90.8323C127.234 90.4029 127.91 89.3913 127.91 88.2694V72.2178C132.302 68.6613 135.95 64.1687 138.51 59.1498C141.418 53.4495 142.892 47.2934 142.892 40.8524C142.892 18.6172 124.802 0.527588 102.567 0.527588ZM123.466 68.6488C122.771 69.1729 122.361 69.9935 122.361 70.865V81.5742L115.572 74.7885C115.044 74.2609 114.335 73.9765 113.61 73.9765C113.339 73.9765 113.064 74.0167 112.796 74.0991C109.494 75.114 106.052 75.6284 102.567 75.6284H95.5455C76.3697 75.6284 60.7695 60.0279 60.7695 40.8524C60.7695 21.6768 76.37 6.07639 95.5455 6.07639H102.567C121.743 6.07639 137.343 21.6768 137.343 40.8524C137.343 51.8753 132.285 62.0069 123.466 68.6488Z" fill="white"/>
<path d="M111.55 30.8853C111.15 25.0771 106.468 20.395 100.659 19.9946C97.3667 19.7685 94.2244 20.8791 91.8193 23.1244C89.4472 25.3387 88.0869 28.4688 88.0869 31.7123C88.0869 33.2446 89.3293 34.4867 90.8613 34.4867C92.3933 34.4867 93.6357 33.2446 93.6357 31.7123C93.6357 29.9758 94.3354 28.3664 95.6055 27.1809C96.8745 25.9965 98.5331 25.4103 100.278 25.5307C103.338 25.7415 105.804 28.2077 106.015 31.267C106.228 34.3569 104.201 37.0874 101.195 37.7599C98.7595 38.3048 97.0588 40.4211 97.0588 42.9062V49.5717C97.0588 51.104 98.3011 52.3461 99.8332 52.3461C101.365 52.3461 102.608 51.104 102.607 49.5717V43.1279C108.198 41.7773 111.948 36.6618 111.55 30.8853Z" fill="white"/>
<path d="M101.794 58.5846C101.278 58.0686 100.563 57.7717 99.833 57.7717C99.1033 57.7717 98.3875 58.0686 97.8715 58.5846C97.3555 59.1007 97.0586 59.8165 97.0586 60.5461C97.0586 61.2786 97.3557 61.9944 97.8715 62.5104C98.3875 63.0264 99.1033 63.3205 99.833 63.3205C100.563 63.3205 101.278 63.0264 101.794 62.5104C102.311 61.9916 102.607 61.2786 102.607 60.5461C102.607 59.8165 102.31 59.1007 101.794 58.5846Z" fill="white"/>
<path d="M77.1384 86.5339H18.5986C17.0666 86.5339 15.8242 87.776 15.8242 89.3083C15.8242 90.8406 17.0666 92.0827 18.5986 92.0827H77.1384C78.6707 92.0827 79.9128 90.8406 79.9128 89.3083C79.9128 87.776 78.6705 86.5339 77.1384 86.5339Z" fill="#FF002A"/>
<path d="M79.0999 102.883C78.5841 102.367 77.8683 102.071 77.1387 102.071C76.409 102.071 75.6932 102.367 75.1772 102.883C74.6608 103.399 74.3643 104.115 74.3643 104.845C74.3643 105.575 74.6611 106.29 75.1772 106.806C75.6932 107.322 76.409 107.619 77.1387 107.619C77.8683 107.619 78.5841 107.322 79.0999 106.806C79.6162 106.29 79.9131 105.577 79.9131 104.845C79.9131 104.115 79.6159 103.399 79.0999 102.883Z" fill="#FF002A"/>
<path d="M66.2259 102.071H18.5986C17.0666 102.071 15.8242 103.313 15.8242 104.845C15.8242 106.377 17.0666 107.619 18.5986 107.619H66.2259C67.7582 107.619 69.0003 106.377 69.0003 104.845C69.0003 103.313 67.7579 102.071 66.2259 102.071Z" fill="#FF002A"/>
<path d="M59.1049 70.9973H18.5986C17.0666 70.9973 15.8242 72.2394 15.8242 73.7717C15.8242 75.304 17.0666 76.5461 18.5986 76.5461H59.1049C60.6372 76.5461 61.8793 75.304 61.8793 73.7717C61.8793 72.2394 60.6369 70.9973 59.1049 70.9973Z" fill="#FF002A"/>
</g>
<defs>
<clipPath id="clip0_658_4849">
<rect width="142.049" height="142.049" fill="white" transform="translate(0.842773 0.527588)"/>
</clipPath>
</defs>
</svg>
