<svg width="136" height="136" viewBox="0 0 136 136" fill="none" xmlns="http://www.w3.org/2000/svg">
<g clip-path="url(#clip0_779_4634)">
<path d="M53.4922 19.2299C53.3207 19.2299 53.1462 19.2144 52.9768 19.1803C52.8074 19.1452 52.6411 19.0956 52.48 19.0295C52.321 18.9634 52.1681 18.8808 52.0245 18.7858C51.8799 18.6887 51.7446 18.5802 51.6228 18.4584C51.5009 18.3334 51.3904 18.1991 51.2954 18.0566C51.2003 17.911 51.1177 17.7571 51.0516 17.599C50.9855 17.44 50.9328 17.2737 50.9008 17.1043C50.8667 16.9329 50.8481 16.7604 50.8481 16.5889C50.8481 16.4144 50.8667 16.2429 50.9008 16.0705C50.9328 15.9011 50.9855 15.7348 51.0516 15.5757C51.1177 15.4177 51.2003 15.2638 51.2954 15.1192C51.3904 14.9756 51.5009 14.8383 51.6228 14.7164C51.7446 14.5956 51.8799 14.484 52.0245 14.389C52.1681 14.294 52.321 14.2114 52.48 14.1453C52.6411 14.0792 52.8074 14.0296 52.9768 13.9955C53.8361 13.823 54.7481 14.1029 55.3616 14.7164C55.4835 14.8383 55.594 14.9756 55.689 15.1192C55.7851 15.2638 55.8667 15.4177 55.9328 15.5757C55.9989 15.7348 56.0495 15.9011 56.0836 16.0705C56.1177 16.2429 56.1363 16.4144 56.1363 16.5889C56.1363 16.7604 56.1177 16.9329 56.0836 17.1043C56.0495 17.2737 55.9989 17.44 55.9328 17.599C55.8667 17.7571 55.7851 17.911 55.689 18.0566C55.594 18.1991 55.4835 18.3334 55.3616 18.4584C54.87 18.95 54.1873 19.2299 53.4922 19.2299Z" fill="#001546"/>
<path d="M94.0774 0.200928H42.0712C35.461 0.200928 30.082 5.57889 30.082 12.1901V123.587C30.082 130.198 35.461 135.576 42.0712 135.576H94.0774C100.688 135.576 106.067 130.198 106.067 123.587V12.1901C106.067 5.57889 100.688 0.200928 94.0774 0.200928V0.200928ZM42.0712 5.48903H94.0774C97.7719 5.48903 100.778 8.49561 100.778 12.1901V13.9438H66.1362C64.6758 13.9438 63.4921 15.1274 63.4921 16.5879C63.4921 18.0473 64.6758 19.2319 66.1362 19.2319H100.778V113.898H35.3701V19.2319H42.3397C43.8001 19.2319 44.9838 18.0473 44.9838 16.5879C44.9838 15.1274 43.8001 13.9438 42.3397 13.9438H35.3701V12.1901C35.3701 8.49561 38.3767 5.48903 42.0712 5.48903V5.48903ZM100.778 123.587C100.778 127.282 97.7719 130.288 94.0774 130.288H42.0712C38.3767 130.288 35.3701 127.282 35.3701 123.587V119.186H100.778V123.587Z" fill="#001546"/>
<path d="M62.5562 59.8554H43.897C42.4366 59.8554 41.2529 58.6718 41.2529 57.2114V38.5532C41.2529 37.0928 42.4366 35.9092 43.897 35.9092H62.5562C64.0166 35.9092 65.2002 37.0928 65.2002 38.5532V57.2114C65.2002 58.6718 64.0166 59.8554 62.5562 59.8554ZM46.541 54.5673H59.9121V41.1973H46.541V54.5673Z" fill="#FF002A"/>
<path d="M92.251 59.8554H73.5918C72.1314 59.8554 70.9478 58.6718 70.9478 57.2114V38.5532C70.9478 37.0928 72.1314 35.9092 73.5918 35.9092H92.251C93.7114 35.9092 94.895 37.0928 94.895 38.5532V57.2114C94.895 58.6718 93.7114 59.8554 92.251 59.8554ZM76.2359 54.5673H89.6069V41.1973H76.2359V54.5673Z" fill="#001546"/>
<path d="M62.5562 89.2859H43.897C42.4366 89.2859 41.2529 88.1023 41.2529 86.6418V67.9827C41.2529 66.5233 42.4366 65.3386 43.897 65.3386H62.5562C64.0166 65.3386 65.2002 66.5233 65.2002 67.9827V86.6418C65.2002 88.1023 64.0166 89.2859 62.5562 89.2859ZM46.541 83.9978H59.9121V70.6267H46.541V83.9978Z" fill="#001546"/>
<path d="M92.251 89.2859H73.5918C72.1314 89.2859 70.9478 88.1023 70.9478 86.6418V67.9827C70.9478 66.5233 72.1314 65.3386 73.5918 65.3386H92.251C93.7114 65.3386 94.895 66.5233 94.895 67.9827V86.6418C94.895 88.1023 93.7114 89.2859 92.251 89.2859ZM76.2359 83.9978H89.6069V70.6267H76.2359V83.9978Z" fill="#FF002A"/>
<path d="M71.3353 127.381H64.813C63.3526 127.381 62.1689 126.197 62.1689 124.737C62.1689 123.276 63.3526 122.093 64.813 122.093H71.3353C72.7958 122.093 73.9794 123.276 73.9794 124.737C73.9794 126.197 72.7958 127.381 71.3353 127.381Z" fill="#001546"/>
<path d="M76.7999 100.939H59.3491C57.8887 100.939 56.7051 99.7558 56.7051 98.2954C56.7051 96.835 57.8887 95.6514 59.3491 95.6514H76.7999C78.2593 95.6514 79.4439 96.835 79.4439 98.2954C79.4439 99.7558 78.2593 100.939 76.7999 100.939Z" fill="#001546"/>
</g>
<defs>
<clipPath id="clip0_779_4634">
<rect width="135.376" height="135.376" fill="white" transform="translate(0.468262 0.200928)"/>
</clipPath>
</defs>
</svg>
