<svg width="24" height="24" viewBox="0 0 24 24" fill="none" xmlns="http://www.w3.org/2000/svg">
<path d="M12.0902 8.9349C11.6805 8.9349 11.2935 8.98061 10.9293 9.07202C10.565 9.16344 10.161 9.31071 9.71707 9.51385L9 7.79224C9.4439 7.53832 9.96748 7.34534 10.5707 7.2133C11.174 7.0711 11.7659 7 12.3463 7C13.0748 7 13.6724 7.08633 14.139 7.259C14.6171 7.43167 14.9927 7.65005 15.2659 7.91413C15.539 8.17821 15.7268 8.46768 15.8293 8.78255C15.9431 9.09741 16 9.39704 16 9.68144C16 9.96584 15.9488 10.2299 15.8463 10.4737C15.7553 10.7073 15.6358 10.9257 15.4878 11.1288C15.3398 11.3319 15.1691 11.5249 14.9756 11.7078C14.7821 11.8906 14.5943 12.0632 14.4122 12.2258C14.2756 12.3476 14.1333 12.4797 13.9854 12.6219C13.8374 12.7539 13.7008 12.8961 13.5756 13.0485C13.4618 13.2008 13.365 13.3633 13.2854 13.536C13.2057 13.6985 13.1659 13.8661 13.1659 14.0388C13.1659 14.0794 13.1659 14.1404 13.1659 14.2216C13.1659 14.3029 13.1715 14.374 13.1829 14.4349H10.9293C10.9065 14.3333 10.8894 14.2216 10.878 14.0997C10.878 13.9677 10.878 13.856 10.878 13.7645C10.878 13.4801 10.9179 13.2262 10.9976 13.0028C11.0772 12.7692 11.1797 12.5559 11.3049 12.3629C11.4415 12.1597 11.5951 11.9718 11.7659 11.7992C11.9366 11.6265 12.113 11.4589 12.2951 11.2964C12.5569 11.0628 12.7959 10.8343 13.0122 10.6108C13.2285 10.3772 13.3366 10.1131 13.3366 9.81856C13.3366 9.57479 13.2285 9.36657 13.0122 9.19391C12.8073 9.02124 12.5 8.9349 12.0902 8.9349ZM13.678 16.5983C13.678 17.0452 13.513 17.3906 13.1829 17.6343C12.8642 17.8781 12.5 18 12.0902 18C11.6805 18 11.3106 17.8781 10.9805 17.6343C10.6618 17.3906 10.5024 17.0452 10.5024 16.5983C10.5024 16.1514 10.6618 15.8061 10.9805 15.5623C11.3106 15.3186 11.6805 15.1967 12.0902 15.1967C12.5 15.1967 12.8642 15.3186 13.1829 15.5623C13.513 15.8061 13.678 16.1514 13.678 16.5983Z" fill="#001546"/>
<circle cx="12" cy="12" r="11.5" stroke="#001546"/>
</svg>
