<svg width="24" height="39" viewBox="0 0 24 39" fill="none" xmlns="http://www.w3.org/2000/svg">
<path fill-rule="evenodd" clip-rule="evenodd" d="M16.8553 10.9243C17.2935 11.2802 17.2935 11.949 16.8553 12.305V12.305C16.5288 12.5703 16.061 12.5706 15.7342 12.3056L11.705 9.039L7.67581 12.3056C7.349 12.5706 6.88124 12.5703 6.5547 12.305V12.305C6.11657 11.949 6.11657 11.2802 6.5547 10.9243L11.705 6.73963L16.8553 10.9243Z" fill="#001546"/>
<mask id="mask0_762_4594" style="mask-type:alpha" maskUnits="userSpaceOnUse" x="6" y="6" width="12" height="7">
<path fill-rule="evenodd" clip-rule="evenodd" d="M16.8553 10.9243C17.2935 11.2802 17.2935 11.949 16.8553 12.305V12.305C16.5288 12.5703 16.061 12.5706 15.7342 12.3056L11.705 9.039L7.67581 12.3056C7.349 12.5706 6.88124 12.5703 6.5547 12.305V12.305C6.11657 11.949 6.11657 11.2802 6.5547 10.9243L11.705 6.73963L16.8553 10.9243Z" fill="white"/>
</mask>
<g mask="url(#mask0_762_4594)">
<rect width="24" height="19.5" fill="#001546"/>
</g>
<path fill-rule="evenodd" clip-rule="evenodd" d="M6.5547 28.0757C6.11658 27.7198 6.11658 27.051 6.5547 26.695V26.695C6.88124 26.4297 7.349 26.4294 7.67582 26.6944L11.705 29.961L15.7342 26.6944C16.061 26.4294 16.5288 26.4297 16.8553 26.695V26.695C17.2935 27.051 17.2935 27.7198 16.8553 28.0757L11.705 32.2604L6.5547 28.0757Z" fill="#001546"/>
<mask id="mask1_762_4594" style="mask-type:alpha" maskUnits="userSpaceOnUse" x="6" y="26" width="12" height="7">
<path fill-rule="evenodd" clip-rule="evenodd" d="M6.5547 28.0757C6.11658 27.7198 6.11658 27.051 6.5547 26.695V26.695C6.88124 26.4297 7.349 26.4294 7.67582 26.6944L11.705 29.961L15.7342 26.6944C16.061 26.4294 16.5288 26.4297 16.8553 26.695V26.695C17.2935 27.051 17.2935 27.7198 16.8553 28.0757L11.705 32.2604L6.5547 28.0757Z" fill="white"/>
</mask>
<g mask="url(#mask1_762_4594)">
<rect y="19.5" width="24" height="19.5" fill="#001546"/>
</g>
<path fill-rule="evenodd" clip-rule="evenodd" d="M20.1875 24.375C20.6362 24.375 21 24.0112 21 23.5625V23.5625C21 23.1138 20.6362 22.75 20.1875 22.75H3.8125C3.36377 22.75 3 23.1138 3 23.5625V23.5625C3 24.0112 3.36377 24.375 3.8125 24.375H20.1875ZM20.1875 20.3125C20.6362 20.3125 21 19.9487 21 19.5V19.5C21 19.0513 20.6362 18.6875 20.1875 18.6875H3.8125C3.36377 18.6875 3 19.0513 3 19.5V19.5C3 19.9487 3.36377 20.3125 3.8125 20.3125H20.1875ZM3 15.4375C3 15.8862 3.36377 16.25 3.8125 16.25H20.1875C20.6362 16.25 21 15.8862 21 15.4375V15.4375C21 14.9888 20.6362 14.625 20.1875 14.625H3.8125C3.36377 14.625 3 14.9888 3 15.4375V15.4375Z" fill="#001546"/>
<mask id="mask2_762_4594" style="mask-type:alpha" maskUnits="userSpaceOnUse" x="3" y="14" width="18" height="11">
<path fill-rule="evenodd" clip-rule="evenodd" d="M20.1875 24.375C20.6362 24.375 21 24.0112 21 23.5625V23.5625C21 23.1138 20.6362 22.75 20.1875 22.75H3.8125C3.36377 22.75 3 23.1138 3 23.5625V23.5625C3 24.0112 3.36377 24.375 3.8125 24.375H20.1875ZM20.1875 20.3125C20.6362 20.3125 21 19.9487 21 19.5V19.5C21 19.0513 20.6362 18.6875 20.1875 18.6875H3.8125C3.36377 18.6875 3 19.0513 3 19.5V19.5C3 19.9487 3.36377 20.3125 3.8125 20.3125H20.1875ZM3 15.4375C3 15.8862 3.36377 16.25 3.8125 16.25H20.1875C20.6362 16.25 21 15.8862 21 15.4375V15.4375C21 14.9888 20.6362 14.625 20.1875 14.625H3.8125C3.36377 14.625 3 14.9888 3 15.4375V15.4375Z" fill="white"/>
</mask>
<g mask="url(#mask2_762_4594)">
<rect y="9.75" width="24" height="19.5" fill="#001546"/>
</g>
</svg>
