<svg width="143" height="143" viewBox="0 0 143 143" fill="none" xmlns="http://www.w3.org/2000/svg">
<g clip-path="url(#clip0_779_4605)">
<path d="M96.8375 89.031C95.3055 89.031 94.0631 90.2731 94.0631 91.8054V110.949C94.0631 118.598 87.8401 124.821 80.1911 124.821H50.2365C48.7047 124.821 47.4632 126.062 47.4621 127.593L47.4582 133.109L40.8362 126.488C40.4076 125.504 39.4266 124.821 38.2918 124.821H20.2641C12.615 124.821 6.39206 118.598 6.39206 110.949V68.223C6.39206 60.574 12.615 54.351 20.2641 54.351H48.2855C49.8175 54.351 51.0599 53.1089 51.0599 51.5766C51.0599 50.0443 49.8175 48.8022 48.2855 48.8022H20.2641C9.55543 48.8022 0.843262 57.5144 0.843262 68.223V110.949C0.843262 121.657 9.55543 130.37 20.2641 130.37H36.8711L48.2658 141.764C48.7965 142.295 49.506 142.577 50.2281 142.577C50.5852 142.577 50.9456 142.508 51.2882 142.366C52.325 141.937 53.0011 140.926 53.002 139.804L53.0086 130.37H80.1911C90.8997 130.37 99.6119 121.657 99.6119 110.949V91.8054C99.6119 90.2731 98.3695 89.031 96.8375 89.031Z" fill="#001546"/>
<path d="M102.568 0.527588H95.5465C73.3113 0.527588 55.2217 18.6172 55.2217 40.8524C55.2217 63.0875 73.3113 81.1769 95.5462 81.1769H102.568C106.038 81.1769 109.473 80.736 112.803 79.8649L123.175 90.2317C123.706 90.7619 124.415 91.0438 125.137 91.0438C125.495 91.0438 125.855 90.9747 126.199 90.8323C127.235 90.4029 127.911 89.3913 127.911 88.2694V72.2178C132.303 68.6613 135.951 64.1687 138.511 59.1498C141.419 53.4495 142.893 47.2934 142.893 40.8524C142.893 18.6172 124.803 0.527588 102.568 0.527588ZM123.467 68.6488C122.772 69.1729 122.362 69.9935 122.362 70.865V81.5742L115.573 74.7885C115.045 74.2609 114.336 73.9765 113.611 73.9765C113.34 73.9765 113.065 74.0167 112.797 74.0991C109.494 75.114 106.053 75.6284 102.568 75.6284H95.5465C76.3707 75.6284 60.7705 60.0279 60.7705 40.8524C60.7705 21.6768 76.3709 6.07639 95.5465 6.07639H102.568C121.744 6.07639 137.344 21.6768 137.344 40.8524C137.344 51.8753 132.286 62.0069 123.467 68.6488Z" fill="#001546"/>
<path d="M111.551 30.8853C111.15 25.0771 106.468 20.395 100.66 19.9946C97.3672 19.7685 94.2249 20.8791 91.8198 23.1244C89.4477 25.3387 88.0874 28.4688 88.0874 31.7123C88.0874 33.2446 89.3298 34.4867 90.8618 34.4867C92.3938 34.4867 93.6362 33.2446 93.6362 31.7123C93.6362 29.9758 94.3359 28.3664 95.606 27.1809C96.875 25.9965 98.5336 25.4103 100.279 25.5307C103.338 25.7415 105.804 28.2077 106.015 31.267C106.228 34.3569 104.201 37.0874 101.195 37.7599C98.76 38.3048 97.0593 40.4211 97.0593 42.9062V49.5717C97.0593 51.104 98.3016 52.3461 99.8337 52.3461C101.366 52.3461 102.608 51.104 102.608 49.5717V43.1279C108.198 41.7773 111.949 36.6618 111.551 30.8853Z" fill="#001546"/>
<path d="M101.795 58.5846C101.279 58.0686 100.564 57.7717 99.834 57.7717C99.1043 57.7717 98.3885 58.0686 97.8725 58.5846C97.3564 59.1007 97.0596 59.8165 97.0596 60.5461C97.0596 61.2786 97.3567 61.9944 97.8725 62.5104C98.3885 63.0264 99.1043 63.3205 99.834 63.3205C100.564 63.3205 101.279 63.0264 101.795 62.5104C102.312 61.9916 102.608 61.2786 102.608 60.5461C102.608 59.8165 102.311 59.1007 101.795 58.5846Z" fill="#001546"/>
<path d="M77.1394 86.5339H18.5996C17.0676 86.5339 15.8252 87.776 15.8252 89.3083C15.8252 90.8406 17.0676 92.0827 18.5996 92.0827H77.1394C78.6717 92.0827 79.9138 90.8406 79.9138 89.3083C79.9138 87.776 78.6714 86.5339 77.1394 86.5339Z" fill="#FF002A"/>
<path d="M79.1004 102.883C78.5846 102.367 77.8688 102.071 77.1391 102.071C76.4095 102.071 75.6937 102.367 75.1776 102.883C74.6613 103.399 74.3647 104.115 74.3647 104.845C74.3647 105.575 74.6616 106.29 75.1776 106.806C75.6937 107.322 76.4095 107.619 77.1391 107.619C77.8688 107.619 78.5846 107.322 79.1004 106.806C79.6167 106.29 79.9135 105.577 79.9135 104.845C79.9135 104.115 79.6164 103.399 79.1004 102.883Z" fill="#FF002A"/>
<path d="M66.2269 102.071H18.5996C17.0676 102.071 15.8252 103.313 15.8252 104.845C15.8252 106.377 17.0676 107.619 18.5996 107.619H66.2269C67.7592 107.619 69.0013 106.377 69.0013 104.845C69.0013 103.313 67.7589 102.071 66.2269 102.071Z" fill="#FF002A"/>
<path d="M59.1058 70.9973H18.5996C17.0676 70.9973 15.8252 72.2394 15.8252 73.7717C15.8252 75.304 17.0676 76.5461 18.5996 76.5461H59.1058C60.6381 76.5461 61.8802 75.304 61.8802 73.7717C61.8802 72.2394 60.6379 70.9973 59.1058 70.9973Z" fill="#FF002A"/>
</g>
<defs>
<clipPath id="clip0_779_4605">
<rect width="142.049" height="142.049" fill="white" transform="translate(0.843262 0.527588)"/>
</clipPath>
</defs>
</svg>
