<svg width="131" height="131" viewBox="0 0 131 131" fill="none" xmlns="http://www.w3.org/2000/svg">
<g clip-path="url(#clip0_779_4646)">
<path d="M46.4502 93.8205C46.2658 93.768 46.077 93.7384 45.887 93.7282C48.6813 90.7912 50.4022 86.8237 50.4022 82.4596V69.0387C50.4022 68.916 50.3905 68.7964 50.3739 68.6785C50.3907 68.4362 50.4022 68.1923 50.4022 67.9459V59.4548C50.4022 58.0459 49.2601 56.9038 47.8512 56.9038H30.7412C23.536 56.9038 17.6744 62.7657 17.6744 69.9706V82.4596C17.6744 86.8237 19.395 90.7912 22.1896 93.7282C21.9998 93.7384 21.8111 93.768 21.6269 93.8205C9.57181 94.9121 0.0942383 105.073 0.0942383 117.407V128.306C0.0942383 129.715 1.2363 130.857 2.6452 130.857H65.4312C66.8401 130.857 67.9821 129.715 67.9821 128.306V117.407C67.9821 105.073 58.5051 94.9123 46.4502 93.8205ZM22.7763 73.2055V69.9703C22.7763 65.5786 26.3495 62.0055 30.7412 62.0055H45.3003V67.9456C45.3003 70.9361 42.8674 73.369 39.8769 73.369H22.7763V73.2055ZM22.7763 78.4709H39.8769C41.8595 78.4709 43.7154 77.9194 45.3003 76.9622V82.4593C45.3003 88.6691 40.2481 93.7213 34.0383 93.7213C27.8285 93.7213 22.7763 88.6691 22.7763 82.4593V78.4709ZM39.5905 98.8234L34.0383 104.376L28.4861 98.8234H39.5905ZM62.8805 125.755H5.19615V120.653H15.7826C17.1915 120.653 18.3336 119.511 18.3336 118.102C18.3336 116.693 17.1915 115.551 15.7826 115.551H5.28926C6.14613 106.95 12.8927 100.062 21.4254 98.9778L32.2345 109.787C32.7128 110.265 33.3618 110.534 34.0383 110.534C34.7148 110.534 35.3638 110.265 35.8421 109.787L46.6513 98.9778C55.7898 100.139 62.8805 107.958 62.8805 117.407V125.755Z" fill="#001546"/>
<path d="M109.172 37.1648C108.987 37.1122 108.798 37.0826 108.608 37.0724C111.402 34.1355 113.123 30.168 113.123 25.8038V12.3827C113.123 12.26 113.111 12.1404 113.095 12.0225C113.111 11.7802 113.123 11.5363 113.123 11.2899V2.79876C113.123 1.38987 111.981 0.247803 110.572 0.247803H93.4619C86.2567 0.247803 80.3951 6.10965 80.3951 13.3146V25.8036C80.3951 30.1677 82.1157 34.1352 84.9101 37.0722C84.72 37.0824 84.5307 37.1119 84.3463 37.1645C72.2918 38.2566 62.8149 48.4173 62.8149 60.7512V71.6496C62.8149 73.0585 63.957 74.2006 65.3659 74.2006H85.8909C87.2998 74.2006 88.4419 73.0585 88.4419 71.6496C88.4419 70.2407 87.2998 69.0987 85.8909 69.0987H67.9169V60.7514C67.9169 51.3024 75.0072 43.4835 84.1458 42.322L94.955 53.1312C95.4532 53.6294 96.106 53.8784 96.7588 53.8784C97.4115 53.8784 98.0646 53.6294 98.5625 53.1312L109.372 42.322C118.511 43.4837 125.601 51.3024 125.601 60.7514V69.0989H106.809C105.4 69.0989 104.258 70.241 104.258 71.6499C104.258 73.0588 105.4 74.2008 106.809 74.2008H128.152C129.561 74.2008 130.703 73.0588 130.703 71.6499V60.7514C130.703 48.4175 121.226 38.2568 109.172 37.1648ZM96.7593 47.7199L91.2071 42.1677H102.311L96.7593 47.7199ZM108.021 25.8036C108.021 32.0133 102.969 37.0655 96.7593 37.0655C90.5495 37.0655 85.4973 32.0136 85.4973 25.8038V21.8151H102.598C104.581 21.8151 106.436 21.2634 108.021 20.3065V25.8036V25.8036ZM108.021 11.2899C108.021 14.2804 105.588 16.7132 102.598 16.7132H85.4973V16.5497V13.3146C85.4973 8.92284 89.0704 5.34972 93.4622 5.34972H108.021V11.2899Z" fill="#001546"/>
<path d="M98.564 69.8456C98.0895 69.3711 97.4313 69.0981 96.7604 69.0981C96.087 69.0981 95.4314 69.3711 94.9569 69.8456C94.4799 70.3201 94.2095 70.9782 94.2095 71.6491C94.2095 72.3226 94.4799 72.9782 94.9569 73.4526C95.4314 73.9297 96.087 74.2001 96.7604 74.2001C97.4313 74.2001 98.0895 73.9297 98.564 73.4526C99.0384 72.9782 99.3114 72.3226 99.3114 71.6491C99.3114 70.9782 99.0384 70.3201 98.564 69.8456Z" fill="#001546"/>
<path d="M68.3081 35.9431L57.6398 25.2747V13.0026C57.6398 5.9696 51.918 0.247803 44.885 0.247803H12.849C5.81604 0.247803 0.0942383 5.9696 0.0942383 13.0026V35.451C0.0942383 42.484 5.81604 48.2058 12.849 48.2058H44.8847C50.1586 48.2058 54.7574 45.0408 56.687 40.2978H66.5041C67.5357 40.2978 68.466 39.6762 68.8609 38.7231C69.2558 37.7701 69.0374 36.6727 68.3081 35.9431ZM54.8261 35.1959C53.6376 35.1959 52.6065 36.0166 52.3399 37.175C51.5369 40.6657 48.4714 43.1039 44.8847 43.1039H12.849C8.62923 43.1039 5.19615 39.6708 5.19615 35.451V13.0026C5.19615 8.7828 8.62923 5.34972 12.849 5.34972H44.8847C49.1045 5.34972 52.5376 8.7828 52.5376 13.0026V26.3313C52.5376 27.0079 52.8065 27.6568 53.2848 28.1351L60.3456 35.1959H54.8261Z" fill="#001546"/>
<path d="M117.948 82.8989H85.9127C80.6388 82.8989 76.0399 86.0639 74.1104 90.8069H64.2933C63.2617 90.8069 62.3313 91.4286 61.9365 92.3816C61.5416 93.3346 61.7599 94.4321 62.4893 95.1616L73.1576 105.83V118.102C73.1576 125.135 78.8794 130.857 85.9124 130.857H117.948C124.981 130.857 130.703 125.135 130.703 118.102V95.6537C130.703 88.6207 124.981 82.8989 117.948 82.8989ZM125.601 118.102C125.601 122.322 122.168 125.755 117.948 125.755H85.9127C81.6929 125.755 78.2598 122.322 78.2598 118.102V104.773C78.2598 104.097 77.9909 103.448 77.5126 102.97L70.4518 95.9088H75.9713C77.1598 95.9088 78.1909 95.0882 78.4575 93.9298C79.2605 90.439 82.326 88.0008 85.9127 88.0008H117.948C122.168 88.0008 125.601 91.4339 125.601 95.6537V118.102Z" fill="#001546"/>
<path d="M107.606 101.097C106.61 100.101 104.995 100.101 103.998 101.097L97.2172 107.878L94.0639 104.725C93.0678 103.729 91.4525 103.729 90.4561 104.725C89.4599 105.721 89.4599 107.336 90.4561 108.333L95.4131 113.29C95.9113 113.788 96.5641 114.037 97.2169 114.037C97.8697 114.037 98.5227 113.788 99.0207 113.29L107.606 104.705C108.602 103.708 108.602 102.093 107.606 101.097Z" fill="#FF002A"/>
<path d="M40.4641 17.1526C40.1625 12.7784 36.6366 9.2525 32.2625 8.95098C29.7822 8.78032 27.418 9.61703 25.6068 11.3078C23.8209 12.9749 22.7964 15.3319 22.7964 17.7742C22.7966 19.1834 23.9387 20.3254 25.3476 20.3254C26.7565 20.3254 27.8986 19.1834 27.8986 17.7745C27.8986 16.7258 28.321 15.7539 29.0883 15.0376C29.8544 14.3223 30.8582 13.9672 31.912 14.0412C33.7586 14.1685 35.2471 15.6569 35.3744 17.5036C35.5032 19.3706 34.2793 21.0206 32.4643 21.4267C30.4776 21.8711 29.0901 23.5983 29.0901 25.6268V26.9878C29.0901 28.3967 30.2322 29.5387 31.6411 29.5387C33.05 29.5387 34.192 28.3967 34.192 26.9878V26.2455C38.1445 25.0664 40.7528 21.3402 40.4641 17.1526Z" fill="#FF002A"/>
<path d="M33.4453 34.9459C32.9708 34.4714 32.3127 34.1985 31.6418 34.1985C30.9683 34.1985 30.3127 34.4714 29.8383 34.9459C29.3612 35.4204 29.0908 36.0785 29.0908 36.7494C29.0908 37.4203 29.3612 38.0785 29.8383 38.553C30.3127 39.0275 30.9683 39.3004 31.6418 39.3004C32.3127 39.3004 32.9708 39.0275 33.4453 38.553C33.9198 38.0785 34.1927 37.4203 34.1927 36.7494C34.1927 36.0785 33.9198 35.4204 33.4453 34.9459Z" fill="#FF002A"/>
<path d="M27.79 116.298C27.3156 115.824 26.6574 115.551 25.9865 115.551C25.3156 115.551 24.6575 115.824 24.183 116.298C23.7085 116.773 23.4355 117.431 23.4355 118.102C23.4355 118.773 23.7085 119.431 24.183 119.906C24.6575 120.38 25.3156 120.653 25.9865 120.653C26.6574 120.653 27.3156 120.38 27.79 119.906C28.2645 119.431 28.5375 118.773 28.5375 118.102C28.5375 117.431 28.2645 116.773 27.79 116.298Z" fill="#001546"/>
</g>
<defs>
<clipPath id="clip0_779_4646">
<rect width="130.609" height="130.609" fill="white" transform="translate(0.0942383 0.247803)"/>
</clipPath>
</defs>
</svg>
