<svg width="62" height="61" viewBox="0 0 62 61" fill="none" xmlns="http://www.w3.org/2000/svg">
<circle cx="30.857" cy="30.2857" r="29.7857" stroke="#001546"/>
<path d="M26.0956 22.0953H28.0003C28.5055 22.0953 28.99 22.296 29.3472 22.6532C29.7044 23.0104 29.9051 23.4949 29.9051 24V37.3334C29.9051 37.8385 29.7044 38.323 29.3472 38.6802C28.99 39.0375 28.5055 39.2381 28.0003 39.2381H16.5718C16.0666 39.2381 15.5821 39.0375 15.2249 38.6802C14.8677 38.323 14.667 37.8385 14.667 37.3334V24C14.667 23.4949 14.8677 23.0104 15.2249 22.6532C15.5821 22.296 16.0666 22.0953 16.5718 22.0953H18.4765" stroke="#001546" stroke-width="2" stroke-linecap="round" stroke-linejoin="round"/>
<path d="M25.1432 20.1906H19.4289C19.1764 20.1906 18.9341 20.2909 18.7555 20.4695C18.5769 20.6481 18.4766 20.8903 18.4766 21.1429V23.0477C18.4766 23.3003 18.5769 23.5425 18.7555 23.7211C18.9341 23.8997 19.1764 24.0001 19.4289 24.0001H25.1432C25.3958 24.0001 25.6381 23.8997 25.8167 23.7211C25.9953 23.5425 26.0956 23.3003 26.0956 23.0477V21.1429C26.0956 20.8903 25.9953 20.6481 25.8167 20.4695C25.6381 20.2909 25.3958 20.1906 25.1432 20.1906V20.1906Z" stroke="#001546" stroke-width="2" stroke-linecap="round" stroke-linejoin="round"/>
<path d="M19.4287 30.6667L21.3335 32.5715L25.143 28.762" stroke="#001546" stroke-width="2" stroke-linecap="round" stroke-linejoin="round"/>
<path d="M45.1424 22.0953H47.0472C47.5524 22.0953 48.0369 22.296 48.3941 22.6532C48.7513 23.0104 48.952 23.4949 48.952 24V37.3334C48.952 37.8385 48.7513 38.323 48.3941 38.6802C48.0369 39.0375 47.5524 39.2381 47.0472 39.2381H35.6186C35.1135 39.2381 34.629 39.0375 34.2718 38.6802C33.9145 38.323 33.7139 37.8385 33.7139 37.3334V24C33.7139 23.4949 33.9145 23.0104 34.2718 22.6532C34.629 22.296 35.1135 22.0953 35.6186 22.0953H37.5234" stroke="#001546" stroke-width="2" stroke-linecap="round" stroke-linejoin="round"/>
<path d="M44.1901 20.1906H38.4758C38.2232 20.1906 37.981 20.2909 37.8024 20.4695C37.6238 20.6481 37.5234 20.8903 37.5234 21.1429V23.0477C37.5234 23.3003 37.6238 23.5425 37.8024 23.7211C37.981 23.8997 38.2232 24.0001 38.4758 24.0001H44.1901C44.4427 24.0001 44.6849 23.8997 44.8635 23.7211C45.0421 23.5425 45.1425 23.3003 45.1425 23.0477V21.1429C45.1425 20.8903 45.0421 20.6481 44.8635 20.4695C44.6849 20.2909 44.4427 20.1906 44.1901 20.1906V20.1906Z" stroke="#001546" stroke-width="2" stroke-linecap="round" stroke-linejoin="round"/>
<path d="M44.1899 28.762L38.4756 34.4762" stroke="#001546" stroke-width="2" stroke-linecap="round" stroke-linejoin="round"/>
<path d="M38.4756 28.762L44.1899 34.4762" stroke="#001546" stroke-width="2" stroke-linecap="round" stroke-linejoin="round"/>
</svg>
