<svg width="45" height="45" viewBox="0 0 45 45" fill="none" xmlns="http://www.w3.org/2000/svg">
<circle cx="22.5" cy="22.5" r="22" fill="#EDF8FE" stroke="#C2D1D9"/>
<path d="M18.9622 17.0344H20.3773C20.7526 17.0344 21.1126 17.1891 21.378 17.4645C21.6433 17.7399 21.7924 18.1134 21.7924 18.5029V28.7824C21.7924 29.1718 21.6433 29.5454 21.378 29.8208C21.1126 30.0962 20.7526 30.2509 20.3773 30.2509H11.8868C11.5115 30.2509 11.1515 30.0962 10.8862 29.8208C10.6208 29.5454 10.4717 29.1718 10.4717 28.7824V18.5029C10.4717 18.1134 10.6208 17.7399 10.8862 17.4645C11.1515 17.1891 11.5115 17.0344 11.8868 17.0344H13.3019" stroke="#001546" stroke-width="2" stroke-linecap="round" stroke-linejoin="round"/>
<path d="M18.2546 15.5659H14.0093C13.8217 15.5659 13.6417 15.6433 13.509 15.781C13.3763 15.9187 13.3018 16.1054 13.3018 16.3002V17.7687C13.3018 17.9634 13.3763 18.1502 13.509 18.2878C13.6417 18.4255 13.8217 18.5029 14.0093 18.5029H18.2546C18.4422 18.5029 18.6222 18.4255 18.7549 18.2878C18.8876 18.1502 18.9621 17.9634 18.9621 17.7687V16.3002C18.9621 16.1054 18.8876 15.9187 18.7549 15.781C18.6222 15.6433 18.4422 15.5659 18.2546 15.5659V15.5659Z" stroke="#001546" stroke-width="2" stroke-linecap="round" stroke-linejoin="round"/>
<path d="M14.0093 24.4917L15.4244 25.9602L18.2546 23.0232" stroke="#001546" stroke-width="2" stroke-linecap="round" stroke-linejoin="round"/>
<g clip-path="url(#clip0_916_5076)">
<path d="M33.1131 17.0344H34.5282C34.9035 17.0344 35.2635 17.1891 35.5288 17.4645C35.7942 17.7399 35.9433 18.1134 35.9433 18.5029V28.7824C35.9433 29.1718 35.7942 29.5454 35.5288 29.8208C35.2635 30.0962 34.9035 30.2509 34.5282 30.2509H26.0377C25.6623 30.2509 25.3024 30.0962 25.037 29.8208C24.7716 29.5454 24.6226 29.1718 24.6226 28.7824V18.5029C24.6226 18.1134 24.7716 17.7399 25.037 17.4645C25.3024 17.1891 25.6623 17.0344 26.0377 17.0344H27.4527" stroke="#001546" stroke-width="2" stroke-linecap="round" stroke-linejoin="round"/>
<path d="M32.4055 15.5659H28.1602C27.9725 15.5659 27.7926 15.6433 27.6599 15.781C27.5272 15.9187 27.4526 16.1054 27.4526 16.3002V17.7687C27.4526 17.9634 27.5272 18.1502 27.6599 18.2878C27.7926 18.4255 27.9725 18.5029 28.1602 18.5029H32.4055C32.5931 18.5029 32.7731 18.4255 32.9058 18.2878C33.0385 18.1502 33.113 17.9634 33.113 17.7687V16.3002C33.113 16.1054 33.0385 15.9187 32.9058 15.781C32.7731 15.6433 32.5931 15.5659 32.4055 15.5659V15.5659Z" stroke="#001546" stroke-width="2" stroke-linecap="round" stroke-linejoin="round"/>
<path d="M32.4059 22.1741L28.1606 26.5796" stroke="#FF002A" stroke-width="2" stroke-linecap="round" stroke-linejoin="round"/>
<path d="M28.1606 22.1741L32.4059 26.5796" stroke="#FF002A" stroke-width="2" stroke-linecap="round" stroke-linejoin="round"/>
</g>
<defs>
<clipPath id="clip0_916_5076">
<rect width="16.9811" height="17.6219" fill="white" transform="translate(21.7925 14.0974)"/>
</clipPath>
</defs>
</svg>
